<svg width="668" height="158" viewBox="0 0 668 158" fill="none" xmlns="http://www.w3.org/2000/svg">
<rect width="150" height="158" rx="40" fill="url(#paint0_linear_180_17)"/>
<path d="M121 75V110.25C119.7 111.55 117.5 113.1 114.4 114.9C111.3 116.7 108.2 118.2 105.1 119.4C97 122.8 88 124.5 78.1 124.5C61.6 124.5 49.1 120.5 40.6 112.5C32.2 104.4 28 92.7 28 77.4C28 62.1 32.3 50.4 40.9 42.3C49.6 34.1 61.65 30 77.05 30C89.05 30 100 32.5 109.9 37.5C112.2 38.6 113.9 39.55 115 40.35L116.5 41.55L109.9 54.9C105.2 52.9 99.6 51.9 93.1 51.9C76.5 51.9 68.2 60.5 68.2 77.7C68.2 86.6 70.1 93.55 73.9 98.55C77.7 103.55 82.7 106.05 88.9 106.05C91.4 106.05 93.85 105.55 96.25 104.55L92.8 90.15H81.7L84.7 75H121Z" fill="#93078A"/>
<path d="M199.129 107.355C193.645 107.355 188.935 106.194 185 103.871C181.065 101.548 178.032 98.2581 175.903 94C173.774 89.6774 172.71 84.5806 172.71 78.7097C172.71 72.8387 173.71 67.3548 175.71 62.2581C177.774 57.0968 180.613 52.5806 184.226 48.7097C187.839 44.7742 192 41.7097 196.71 39.5161C201.484 37.2581 206.613 36.129 212.097 36.129C215.323 36.129 218.065 36.4516 220.323 37.0968C222.581 37.6774 224.484 38.4194 226.032 39.3226C227.581 40.1613 228.871 40.9032 229.903 41.5484C231 42.129 231.968 42.4194 232.806 42.4194C233.516 42.4194 234.194 42.0645 234.839 41.3548C235.484 40.5806 236.194 39.2903 236.968 37.4839H240.839C239.677 40.9032 238.548 44.6129 237.452 48.6129C236.419 52.5484 235.323 56.8387 234.161 61.4839H230.29C231 54.6452 230 49.3548 227.29 45.6129C224.645 41.871 220.516 40 214.903 40C210.903 40 207.161 41.0323 203.677 43.0968C200.194 45.0968 197.129 47.9355 194.484 51.6129C191.839 55.2258 189.774 59.4516 188.29 64.2903C186.806 69.0645 186.065 74.1935 186.065 79.6774C186.065 84.6452 186.71 88.9032 188 92.4516C189.29 95.9355 191.161 98.6129 193.613 100.484C196.065 102.355 199 103.29 202.419 103.29C206.032 103.29 208.903 102.484 211.032 100.871C213.161 99.2581 214.645 96.9677 215.484 94L217.419 86.8387C218 84.7742 218.161 83.2258 217.903 82.1935C217.645 81.0968 216.774 80.3226 215.29 79.871C213.871 79.3548 211.581 79.0323 208.419 78.9032L209.387 75.2258C210.935 75.2903 213 75.3548 215.581 75.4194C218.226 75.4839 221.323 75.5161 224.871 75.5161C228.161 75.5161 231.032 75.4839 233.484 75.4194C235.935 75.3548 238.129 75.2903 240.065 75.2258L239.097 78.9032C237.032 79.1613 235.452 79.5161 234.355 79.9677C233.258 80.3548 232.387 81.0968 231.742 82.1935C231.161 83.2903 230.548 84.9677 229.903 87.2258L225.065 104.645H221.194C221.065 103.806 220.806 103.194 220.419 102.806C220.032 102.419 219.548 102.226 218.968 102.226C218 102.226 216.968 102.484 215.871 103C214.774 103.516 213.452 104.129 211.903 104.839C210.419 105.484 208.613 106.065 206.484 106.581C204.419 107.097 201.968 107.355 199.129 107.355ZM264.759 93.3226C263.855 95.9032 263.565 97.9355 263.888 99.4194C264.21 100.903 265.275 101.645 267.081 101.645C268.501 101.645 269.823 101.129 271.049 100.097C272.275 99 273.468 97.3871 274.63 95.2581L276.468 91.7742H280.242L277.92 96.0323C276.694 98.4194 275.339 100.484 273.855 102.226C272.371 103.903 270.694 105.194 268.823 106.097C267.017 107 264.92 107.452 262.533 107.452C259.501 107.452 257.146 106.774 255.468 105.419C253.791 104 252.791 102.065 252.468 99.6129C252.21 97.0968 252.63 94.1935 253.726 90.9032L260.984 68.8387C261.888 66.2581 262.146 64.2258 261.759 62.7419C261.436 61.2581 260.371 60.5161 258.565 60.5161C257.21 60.5161 255.888 61.0645 254.597 62.1613C253.371 63.1935 252.21 64.7742 251.113 66.9032L249.178 70.4839H245.404L247.726 66.129C249.017 63.7419 250.404 61.7097 251.888 60.0323C253.371 58.3548 255.049 57.0645 256.92 56.1613C258.791 55.1936 260.855 54.7097 263.113 54.7097C266.21 54.7097 268.597 55.4194 270.275 56.8387C271.952 58.1935 272.92 60.129 273.178 62.6452C273.501 65.0968 273.113 67.9677 272.017 71.2581L264.759 93.3226ZM270.565 45.6129C268.436 45.6129 266.694 44.9677 265.339 43.6774C263.984 42.3871 263.307 40.7742 263.307 38.8387C263.307 36.6452 264.113 34.8065 265.726 33.3226C267.404 31.8387 269.404 31.0968 271.726 31.0968C273.791 31.0968 275.501 31.7419 276.855 33.0323C278.275 34.2581 278.984 35.871 278.984 37.871C278.984 40 278.146 41.8387 276.468 43.3871C274.855 44.871 272.888 45.6129 270.565 45.6129ZM296.682 81.129L300.069 69.129C300.779 66.4194 300.876 64.3226 300.359 62.8387C299.908 61.2903 298.779 60.5161 296.972 60.5161C295.553 60.5161 294.23 61.0645 293.005 62.1613C291.779 63.1935 290.585 64.7742 289.424 66.9032L287.585 70.4839H283.811L286.037 66.129C287.327 63.7419 288.714 61.7097 290.198 60.0323C291.682 58.3548 293.359 57.0645 295.23 56.1613C297.101 55.1936 299.198 54.7097 301.521 54.7097C304.553 54.7097 306.94 55.4194 308.682 56.8387C310.424 58.1935 311.488 60.129 311.876 62.6452C312.327 65.1613 312.069 68.129 311.101 71.5484L308.488 81.129H296.682ZM289.617 106L296.682 81.129H308.488L301.521 106H289.617ZM325.327 74.5484C324.037 74.5484 323.037 74.1935 322.327 73.4839C321.617 72.7097 321.263 71.7419 321.263 70.5806C321.263 69.4839 321.521 68.4194 322.037 67.3871C322.553 66.3548 323.069 65.3871 323.585 64.4839C324.101 63.5806 324.359 62.7419 324.359 61.9677C324.359 60.7419 323.521 60.129 321.843 60.129C320.101 60.129 318.23 60.8387 316.23 62.2581C314.23 63.6774 312.553 65.5806 311.198 67.9677L310.714 65.4516C312.65 62.0323 314.94 59.3871 317.585 57.5161C320.295 55.6452 323.166 54.7097 326.198 54.7097C328.779 54.7097 330.779 55.3871 332.198 56.7419C333.682 58.0968 334.424 60.0323 334.424 62.5484C334.424 64.5484 333.972 66.4839 333.069 68.3548C332.23 70.2258 331.134 71.7419 329.779 72.9032C328.424 74 326.94 74.5484 325.327 74.5484ZM342.402 81.129L352.176 45.8065C352.821 43.5484 353.015 41.7742 352.757 40.4839C352.498 39.1935 351.595 38.2581 350.047 37.6774C348.563 37.0968 346.208 36.8065 342.982 36.8065L344.144 33.0323C349.176 32.9677 353.692 32.6129 357.692 31.9677C361.692 31.3226 365.369 30.3548 368.724 29.0645L354.208 81.129H342.402ZM350.821 93.129C350.047 95.7097 349.918 97.7742 350.434 99.3226C350.95 100.871 352.079 101.645 353.821 101.645C355.24 101.645 356.563 101.129 357.789 100.097C359.079 99 360.273 97.4194 361.369 95.3548L363.208 91.7742H366.982L364.757 96.129C363.466 98.4516 362.079 100.484 360.595 102.226C359.111 103.903 357.434 105.194 355.563 106.097C353.757 107 351.692 107.452 349.369 107.452C346.273 107.452 343.853 106.774 342.111 105.419C340.369 104 339.305 102.032 338.918 99.5161C338.531 96.9355 338.789 93.9677 339.692 90.6129L342.402 81.129H354.208L350.821 93.129ZM390.149 93.3226C389.246 95.9032 388.956 97.9355 389.278 99.4194C389.601 100.903 390.665 101.645 392.472 101.645C393.891 101.645 395.214 101.129 396.44 100.097C397.665 99 398.859 97.3871 400.02 95.2581L401.859 91.7742H405.633L403.31 96.0323C402.085 98.4194 400.73 100.484 399.246 102.226C397.762 103.903 396.085 105.194 394.214 106.097C392.407 107 390.31 107.452 387.923 107.452C384.891 107.452 382.536 106.774 380.859 105.419C379.181 104 378.181 102.065 377.859 99.6129C377.601 97.0968 378.02 94.1935 379.117 90.9032L386.375 68.8387C387.278 66.2581 387.536 64.2258 387.149 62.7419C386.827 61.2581 385.762 60.5161 383.956 60.5161C382.601 60.5161 381.278 61.0645 379.988 62.1613C378.762 63.1935 377.601 64.7742 376.504 66.9032L374.569 70.4839H370.794L373.117 66.129C374.407 63.7419 375.794 61.7097 377.278 60.0323C378.762 58.3548 380.44 57.0645 382.31 56.1613C384.181 55.1936 386.246 54.7097 388.504 54.7097C391.601 54.7097 393.988 55.4194 395.665 56.8387C397.343 58.1935 398.31 60.129 398.569 62.6452C398.891 65.0968 398.504 67.9677 397.407 71.2581L390.149 93.3226ZM395.956 45.6129C393.827 45.6129 392.085 44.9677 390.73 43.6774C389.375 42.3871 388.698 40.7742 388.698 38.8387C388.698 36.6452 389.504 34.8065 391.117 33.3226C392.794 31.8387 394.794 31.0968 397.117 31.0968C399.181 31.0968 400.891 31.7419 402.246 33.0323C403.665 34.2581 404.375 35.871 404.375 37.871C404.375 40 403.536 41.8387 401.859 43.3871C400.246 44.871 398.278 45.6129 395.956 45.6129ZM398.501 129.129C395.597 129.129 393.371 128.581 391.823 127.484C390.21 126.452 389.404 125 389.404 123.129C389.404 121.516 389.952 120.161 391.049 119.065C392.146 118.032 393.533 117.516 395.21 117.516C396.436 117.516 397.565 117.806 398.597 118.387C399.565 118.968 400.468 119.613 401.307 120.323C402.081 121.097 402.855 121.774 403.63 122.355C404.339 122.935 405.113 123.226 405.952 123.226C407.178 123.226 408.21 122.581 409.049 121.29C409.888 120 410.63 117.968 411.275 115.194L424.63 59.8387C426.307 53 428.533 47.4194 431.307 43.0968C434.081 38.7097 437.501 35.4839 441.565 33.4194C445.694 31.3548 450.565 30.3226 456.178 30.3226C461.597 30.3226 465.823 31.2258 468.855 33.0323C471.952 34.7742 473.501 37.2258 473.501 40.3871C473.501 42.7097 472.662 44.6774 470.984 46.2903C469.371 47.8387 467.371 48.6129 464.984 48.6129C463.436 48.6129 462.21 48.2903 461.307 47.6452C460.404 46.9355 459.952 46 459.952 44.8387C459.952 43.6774 460.275 42.6452 460.92 41.7419C461.565 40.8387 462.21 40 462.855 39.2258C463.501 38.3871 463.823 37.6129 463.823 36.9032C463.823 35.9355 463.242 35.2258 462.081 34.7742C460.984 34.2581 459.468 34 457.533 34C453.984 34 450.92 34.7742 448.339 36.3226C445.823 37.8065 443.662 40.2258 441.855 43.5806C440.049 46.9355 438.501 51.4194 437.21 57.0323L427.049 98.9355C425.565 105.129 423.436 110.484 420.662 115C417.888 119.516 414.597 123 410.791 125.452C407.049 127.903 402.952 129.129 398.501 129.129ZM413.694 59.8387L414.759 56.0645H463.436L462.275 59.8387H413.694ZM458.21 107.355C453.888 107.355 450.855 105.871 449.113 102.903C447.436 99.871 447.307 95.7742 448.726 90.6129L458.404 56.0645H470.21L459.855 93.0323C459.146 95.7419 459.017 97.8387 459.468 99.3226C459.984 100.806 461.081 101.548 462.759 101.548C463.791 101.548 464.726 101.29 465.565 100.774C466.468 100.258 467.307 99.5161 468.081 98.5484C468.855 97.5806 469.597 96.4194 470.307 95.0645L472.146 91.6774H475.92L473.791 95.7419C472.501 98.129 471.081 100.194 469.533 101.935C468.049 103.677 466.371 105.032 464.501 106C462.694 106.903 460.597 107.355 458.21 107.355ZM500.514 107.355C495.03 107.355 490.772 105.71 487.74 102.419C484.708 99.0645 483.192 94.4194 483.192 88.4839C483.192 83.9677 483.998 79.7097 485.611 75.7097C487.224 71.6452 489.45 68.0323 492.288 64.871C495.127 61.7097 498.385 59.2258 502.063 57.4194C505.74 55.6129 509.611 54.7097 513.675 54.7097C517.546 54.7097 520.514 55.5484 522.579 57.2258C524.643 58.8387 525.675 61.1935 525.675 64.2903C525.675 67.7742 524.385 71.0968 521.804 74.2581C519.224 77.3548 515.546 80.129 510.772 82.5806C506.062 84.9677 500.482 86.8387 494.03 88.1935V85.1935C498.675 83.7097 502.611 81.871 505.837 79.6774C509.127 77.4839 511.611 75.0645 513.288 72.4194C515.03 69.7097 515.901 66.9032 515.901 64C515.901 62.129 515.546 60.7419 514.837 59.8387C514.127 58.871 513.127 58.3871 511.837 58.3871C509.901 58.3871 507.933 59.2581 505.933 61C503.998 62.6774 502.224 64.9355 500.611 67.7742C498.998 70.6129 497.675 73.7419 496.643 77.1613C495.675 80.5806 495.192 84 495.192 87.4194C495.192 92 496.03 95.4839 497.708 97.871C499.45 100.258 501.933 101.452 505.159 101.452C507.74 101.452 510.095 100.71 512.224 99.2258C514.417 97.7419 516.353 95.4516 518.03 92.3548H521.611C519.288 97.2581 516.353 101 512.804 103.581C509.256 106.097 505.159 107.355 500.514 107.355ZM549.402 107.355C544.757 107.355 541.112 105.677 538.467 102.323C535.822 98.9677 534.499 94.3548 534.499 88.4839C534.499 84.0968 535.209 79.871 536.628 75.8065C538.048 71.7419 539.983 68.129 542.435 64.9677C544.951 61.8065 547.757 59.3226 550.854 57.5161C554.015 55.6452 557.338 54.7097 560.822 54.7097C563.725 54.7097 566.273 55.3871 568.467 56.7419C570.661 58.0968 572.209 59.9677 573.112 62.3548L571.951 65.4516C571.048 63.7742 569.854 62.4839 568.37 61.5806C566.951 60.6774 565.338 60.2258 563.532 60.2258C561.273 60.2258 559.112 60.9677 557.048 62.4516C555.048 63.9355 553.241 65.9677 551.628 68.5484C550.08 71.0645 548.822 73.9677 547.854 77.2581C546.951 80.4839 546.499 83.9032 546.499 87.5161C546.499 91.8387 547.209 95.1613 548.628 97.4839C550.048 99.7419 552.112 100.871 554.822 100.871C556.693 100.871 558.467 100.258 560.144 99.0323C561.822 97.8065 563.273 96.0645 564.499 93.8065L564.983 95.8387C563.241 99.5806 561.048 102.452 558.402 104.452C555.757 106.387 552.757 107.355 549.402 107.355ZM566.919 81.129L576.693 45.8065C577.402 43.5484 577.596 41.7742 577.273 40.4839C577.015 39.1935 576.112 38.2581 574.564 37.6774C573.08 37.0968 570.757 36.8065 567.596 36.8065L568.661 33.0323C573.693 32.9677 578.209 32.6129 582.209 31.9677C586.273 31.3226 589.951 30.3548 593.241 29.0645L578.725 81.129H566.919ZM575.338 93.129C574.628 95.7097 574.499 97.7742 574.951 99.3226C575.467 100.871 576.628 101.645 578.435 101.645C579.854 101.645 581.177 101.129 582.402 100.097C583.628 99 584.79 97.4194 585.886 95.3548L587.822 91.7742H591.596L589.273 96.129C588.048 98.4516 586.661 100.484 585.112 102.226C583.628 103.903 581.951 105.194 580.08 106.097C578.273 107 576.209 107.452 573.886 107.452C570.854 107.452 568.435 106.774 566.628 105.419C564.886 104 563.822 102.032 563.435 99.5161C563.048 96.9355 563.306 93.9677 564.209 90.6129L566.919 81.129H578.725L575.338 93.129Z" fill="white"/>
<defs>
<linearGradient id="paint0_linear_180_17" x1="75" y1="0" x2="75" y2="158" gradientUnits="userSpaceOnUse">
<stop stop-color="white"/>
<stop offset="1" stop-color="#C090BD"/>
</linearGradient>
</defs>
</svg>
