<svg xmlns="http://www.w3.org/2000/svg" xmlns:xlink="http://www.w3.org/1999/xlink" id="Layer_1" x="0px" y="0px" viewBox="0 0 650.8 443.9" style="enable-background:new 0 0 650.8 443.9;" xml:space="preserve">
<style type="text/css">
	.st0{fill:#F4DC25;}
	.st1{fill:#231F20;}
</style>
<g>
	<path class="st0" d="M62.7,308.6c168.4-4,281.8,16.1,490.9,2.4c0.8-0.1,1.7,0.3,2.2,0.9c40.6,47.4,57.5,75,94.8,125.7   c0.5,0.7,0.1,1.8-0.9,1.9c-44.5,1.4-92.9,4.5-139.4,4.4c-152.5-0.2-315-8-507.1-1.4c-1.6,0.1-2.7-1.7-1.9-3.1   c24.7-44.5,34.5-84.5,60.3-130.2C61.9,308.9,62.3,308.6,62.7,308.6z"></path>
	<g>
		<g>
			<path class="st1" d="M270.1,222c0,2.9-0.6,5.6-1.7,8.2c-1.2,2.5-2.7,4.7-4.6,6.6c-1.9,1.9-4.2,3.3-6.9,4.4     c-2.7,1.1-5.5,1.6-8.4,1.6c-6.1,0-11.3-2-15.4-6.1c-4.2-4.1-6.2-9-6.2-14.7c0-2.8,0.5-5.4,1.6-8c1.1-2.5,2.6-4.7,4.6-6.6     c2-1.9,4.3-3.3,6.9-4.5c2.6-1.2,5.5-1.7,8.5-1.7c2.9,0,5.7,0.5,8.4,1.6c2.7,1.1,5,2.5,6.9,4.4c1.9,1.9,3.5,4,4.6,6.6     C269.5,216.3,270.1,219.1,270.1,222z M229.5,373.5V258.6h37.8v114.8H229.5z"></path>
			<path class="st1" d="M372.7,373.5v-62.7c0-3.2-0.3-6.3-0.8-9.2c-0.5-2.9-1.4-5.5-2.7-7.7c-1.2-2.2-3-4-5.2-5.3     c-2.2-1.3-5-2-8.4-2c-3.4,0-6.3,0.6-8.9,2c-2.5,1.3-4.7,3.1-6.3,5.4c-1.7,2.3-3,5-3.8,8c-0.8,3-1.3,6.1-1.3,9.3v62.3h-38.1V258.6     H334v15.9h0.5c1.4-2.4,3.2-4.9,5.4-7.3c2.2-2.4,4.8-4.4,7.8-6.1c3-1.7,6.3-3.1,9.8-4.1c3.5-1.1,7.3-1.6,11.3-1.6     c7.7,0,14.2,1.4,19.6,4.1c5.4,2.8,9.7,6.3,13,10.7c3.3,4.4,5.7,9.4,7.1,15.1c1.5,5.7,2.2,11.4,2.2,17.1v71H372.7z"></path>
			<path class="st1" d="M516,295.8c-2.2-2.8-5.1-5-8.8-6.7c-3.7-1.7-7.5-2.5-11.3-2.5c-4,0-7.6,0.8-10.8,2.4c-3.2,1.6-6,3.8-8.3,6.5     c-2.3,2.7-4.1,5.8-5.4,9.3c-1.3,3.6-2,7.3-2,11.3c0,4,0.6,7.8,1.8,11.3c1.2,3.5,3,6.7,5.4,9.3s5.2,4.8,8.5,6.3     c3.3,1.5,7,2.3,11.2,2.3c3.8,0,7.6-0.7,11.4-2.2c3.8-1.5,6.8-3.6,9.1-6.3l21,25.6c-4.8,4.6-10.9,8.2-18.4,10.8     c-7.5,2.6-15.5,3.9-24,3.9c-9.1,0-17.5-1.4-25.4-4.1c-7.9-2.8-14.7-6.8-20.5-12.1c-5.8-5.3-10.4-11.7-13.7-19.3     c-3.3-7.5-5-16.1-5-25.6c0-9.4,1.7-17.8,5-25.4c3.3-7.5,7.9-13.9,13.7-19.2c5.8-5.3,12.6-9.4,20.5-12.2     c7.9-2.8,16.3-4.3,25.2-4.3c4.2,0,8.3,0.4,12.3,1.1c4.1,0.8,8,1.8,11.8,3.1c3.8,1.3,7.2,2.9,10.4,4.9c3.1,1.9,5.9,4,8.2,6.3     L516,295.8z"></path>
		</g>
		<g>
			<path class="st1" d="M273.3,116.5c0,9.4-1.7,17.9-5.1,25.5c-3.4,7.6-8,14.1-13.8,19.4c-5.8,5.3-12.6,9.4-20.3,12.3     c-7.7,2.9-15.9,4.4-24.7,4.4c-8.6,0-16.8-1.5-24.6-4.4c-7.8-2.9-14.5-7-20.3-12.3c-5.8-5.3-10.3-11.8-13.7-19.4     c-3.4-7.6-5.1-16.1-5.1-25.5s1.7-17.8,5.1-25.4c3.4-7.5,8-13.9,13.7-19.1c5.8-5.2,12.5-9.2,20.3-12c7.8-2.8,15.9-4.1,24.6-4.1     c8.8,0,17,1.4,24.7,4.1c7.7,2.8,14.4,6.8,20.3,12c5.8,5.2,10.5,11.6,13.8,19.1C271.6,98.6,273.3,107.1,273.3,116.5z M236.8,116.5     c0-3.7-0.6-7.3-1.8-10.8c-1.2-3.5-3-6.6-5.3-9.3c-2.3-2.7-5.1-4.9-8.5-6.6c-3.4-1.7-7.3-2.5-11.8-2.5c-4.5,0-8.4,0.8-11.8,2.5     c-3.4,1.7-6.2,3.9-8.4,6.6c-2.2,2.7-3.9,5.8-5.1,9.3c-1.2,3.6-1.7,7.2-1.7,10.8c0,3.7,0.6,7.3,1.7,10.8c1.2,3.5,2.9,6.7,5.2,9.6     c2.3,2.8,5.2,5.1,8.5,6.8c3.4,1.7,7.3,2.5,11.8,2.5c4.5,0,8.4-0.8,11.8-2.5c3.4-1.7,6.2-4,8.5-6.8c2.3-2.8,4-6,5.2-9.6     S236.8,120.2,236.8,116.5z"></path>
			<path class="st1" d="M425,116.5c0,8-1.2,15.7-3.7,23.1c-2.5,7.4-6,13.9-10.7,19.5c-4.7,5.6-10.4,10.1-17.2,13.5     s-14.4,5.1-23.1,5.1c-7.1,0-13.8-1.4-20.1-4.3c-6.3-2.8-11.2-6.7-14.8-11.6h-0.5v68h-37.8V59.5h36v14.1h0.7     c3.5-4.6,8.4-8.6,14.6-12.1c6.2-3.5,13.6-5.2,22-5.2c8.3,0,15.8,1.6,22.6,4.8c6.8,3.2,12.5,7.6,17.2,13.1     c4.7,5.5,8.3,12,10.8,19.2C423.7,100.8,425,108.5,425,116.5z M388.3,116.5c0-3.7-0.6-7.3-1.7-10.8c-1.2-3.5-2.8-6.6-5.1-9.3     c-2.2-2.7-5-4.9-8.4-6.6c-3.4-1.7-7.3-2.5-11.8-2.5c-4.3,0-8.2,0.8-11.5,2.5c-3.4,1.7-6.3,3.9-8.6,6.7c-2.4,2.8-4.2,5.9-5.5,9.5     c-1.3,3.5-2,7.1-2,10.8s0.6,7.3,2,10.8c1.3,3.5,3.1,6.7,5.5,9.5c2.4,2.8,5.3,5,8.6,6.7c3.4,1.7,7.2,2.5,11.5,2.5     c4.5,0,8.4-0.8,11.8-2.5c3.4-1.7,6.2-3.9,8.4-6.7c2.2-2.8,3.9-6,5.1-9.6C387.8,123.8,388.3,120.2,388.3,116.5z"></path>
			<path class="st1" d="M123.7,93.5c-2.5-7.3-6.1-13.7-10.8-19.2c-4.7-5.5-10.4-9.9-17.1-13.1c-6.7-3.2-14.2-4.8-22.5-4.8     c-8.5,0-15.6,1.6-21.4,4.8c-5.8,3.2-10.4,6.8-13.6,10.6h-0.5V0H0v174.3h34.8v-15h0.5c3.7,5.8,8.9,10.3,15.8,13.5     c6.8,3.2,14.1,4.7,21.8,4.7c8.6,0,16.3-1.7,23.1-5.1c6.8-3.4,12.5-7.9,17.2-13.5s8.3-12.1,10.7-19.5c2.5-7.4,3.7-15.1,3.7-23.1     S126.3,100.8,123.7,93.5z M89.4,127.4c-1.2,3.6-2.9,6.8-5.2,9.6c-2.3,2.8-5.2,5-8.5,6.7c-3.4,1.7-7.3,2.5-11.8,2.5     c-4.3,0-8.2-0.8-11.5-2.5c-3.4-1.7-6.3-3.9-8.7-6.7c-2.4-2.8-4.2-5.9-5.5-9.5c-1.3-3.5-2-7.2-2-10.8c0-3.7,0.6-7.3,2-10.8     c1.3-3.5,3.2-6.7,5.5-9.5s5.3-5,8.7-6.7c3.4-1.7,7.2-2.5,11.5-2.5c4.5,0,8.4,0.8,11.8,2.5c3.4,1.7,6.2,3.9,8.5,6.6     c2.3,2.7,4,5.8,5.2,9.3c1.2,3.6,1.7,7.2,1.7,10.8S90.5,123.8,89.4,127.4z"></path>
		</g>
	</g>
</g>
</svg>