<svg width="411" height="135" viewBox="0 0 411 135" fill="none" xmlns="http://www.w3.org/2000/svg">
<g clip-path="url(#clip0_157_623)">
<path d="M36.4164 72.387C36.2814 75.411 35.4716 78.084 33.9868 80.406C32.5021 82.701 30.3965 84.51 27.697 85.806C24.9975 87.075 21.92 87.723 18.4647 87.723C12.7417 87.723 8.26052 85.86 4.96712 82.134C1.70072 78.408 0.0540161 73.17 0.0540161 66.366V64.233C0.0540161 59.967 0.782883 56.241 2.26761 53.055C3.75234 49.869 5.88495 47.385 8.66545 45.657C11.4459 43.929 14.6853 43.038 18.3297 43.038C23.5937 43.038 27.8319 44.442 31.0444 47.196C34.2568 49.977 36.0654 53.811 36.4974 58.671H26.0503C25.9693 56.025 25.3214 54.135 24.0526 52.974C22.8109 51.813 20.8942 51.246 18.3297 51.246C15.7651 51.246 13.8215 52.218 12.6067 54.162C11.3919 56.106 10.7711 59.238 10.6901 63.504V66.582C10.6901 71.226 11.257 74.547 12.4178 76.518C13.5785 78.489 15.5762 79.488 18.4377 79.488C20.8402 79.488 22.6759 78.921 23.9717 77.787C25.2404 76.653 25.9153 74.844 25.9963 72.387H36.4164Z" fill="#5B33B1"/>
<path d="M65.922 78.975H51.5606L49.0501 87.102H37.8471L53.8012 43.605H63.6544L79.7165 87.102H68.4595L65.922 78.975ZM54.0711 70.875H63.4114L58.7143 55.782L54.0711 70.875Z" fill="#5B33B1"/>
<path d="M94.1318 72.333V87.102H83.6577V43.605H101.016C104.336 43.605 107.278 44.226 109.843 45.441C112.407 46.656 114.378 48.411 115.782 50.652C117.186 52.92 117.887 55.485 117.887 58.347C117.887 62.586 116.349 65.988 113.325 68.526C110.302 71.064 106.118 72.333 100.827 72.333H94.1318ZM94.1318 64.26H100.989C103.013 64.26 104.552 63.747 105.632 62.748C106.685 61.749 107.224 60.318 107.224 58.455C107.224 56.43 106.658 54.81 105.578 53.595C104.498 52.38 102.986 51.759 101.097 51.759H94.1048V64.314L94.1318 64.26Z" fill="#5B33B1"/>
<path d="M134.489 87.075H124.042V43.578H134.489V87.075Z" fill="#5B33B1"/>
<path d="M176.224 51.678H163.185V87.075H152.711V51.678H139.888V43.578H176.251V51.678H176.224Z" fill="#5B33B1"/>
<path d="M202.517 78.948H188.156L185.645 87.075H174.442L190.396 43.578H200.249L216.311 87.075H205.055L202.517 78.948ZM190.639 70.848H199.979L195.282 55.755L190.639 70.848Z" fill="#5B33B1"/>
<path d="M230.268 79.029H248.517V87.102H219.767V43.605H230.241V79.029H230.268Z" fill="#5B33B1"/>
<path d="M285.905 89.073C285.122 89.073 284.312 89.289 283.637 89.694L275.269 94.554C273.109 95.823 272.38 98.577 273.622 100.737C274.432 102.114 275.944 102.978 277.536 102.978C278.319 102.978 279.129 102.762 279.804 102.357L288.172 97.497C290.332 96.228 291.061 93.474 289.819 91.314C289.009 89.937 287.498 89.073 285.905 89.073Z" fill="#5B33B1"/>
<path d="M285.905 75.114C285.338 75.114 284.825 75.222 284.258 75.438L275.89 78.678C274.756 79.11 273.865 79.974 273.406 81.054C272.92 82.161 272.893 83.376 273.298 84.51C273.973 86.238 275.674 87.399 277.536 87.399C278.103 87.399 278.616 87.291 279.183 87.075L287.551 83.835C288.685 83.403 289.576 82.539 290.035 81.459C290.494 80.352 290.548 79.137 290.143 78.003C289.468 76.275 287.767 75.114 285.905 75.114Z" fill="#5B33B1"/>
<path d="M285.905 64.152C285.608 64.152 285.311 64.152 285.041 64.26L276.673 65.88C275.485 66.123 274.459 66.771 273.784 67.797C273.109 68.796 272.866 70.011 273.082 71.199C273.487 73.332 275.35 74.871 277.509 74.871C277.806 74.871 278.103 74.871 278.373 74.763L286.742 73.143C287.929 72.9 288.955 72.252 289.63 71.226C290.305 70.227 290.548 69.012 290.332 67.824C289.927 65.691 288.064 64.152 285.905 64.152Z" fill="#5B33B1"/>
<path d="M274.783 8.127L283.151 14.58C283.934 15.201 284.906 15.525 285.905 15.525C287.309 15.525 288.631 14.877 289.495 13.743C290.224 12.798 290.575 11.61 290.413 10.395C290.251 9.18 289.63 8.127 288.712 7.398L280.344 0.945C279.561 0.324 278.589 0 277.59 0C276.187 0 274.864 0.648 274 1.782C273.271 2.727 272.92 3.915 273.109 5.13C273.271 6.345 273.892 7.398 274.81 8.127H274.783Z" fill="#5B33B1"/>
<path d="M275.269 24.273L283.637 29.133C284.312 29.511 285.095 29.754 285.905 29.754C287.498 29.754 289.009 28.89 289.819 27.513C291.061 25.353 290.332 22.572 288.172 21.33L279.804 16.47C279.129 16.092 278.346 15.849 277.536 15.849C275.944 15.849 274.432 16.713 273.622 18.09C272.38 20.25 273.109 23.031 275.269 24.273Z" fill="#5B33B1"/>
<path d="M275.944 38.799L284.312 42.039C284.825 42.255 285.392 42.363 285.959 42.363C287.821 42.363 289.495 41.202 290.197 39.474C290.602 38.34 290.602 37.125 290.089 36.018C289.603 34.911 288.712 34.074 287.605 33.642L279.237 30.402C278.724 30.186 278.157 30.078 277.59 30.078C275.728 30.078 274.054 31.239 273.352 32.967C272.461 35.289 273.622 37.908 275.944 38.826V38.799Z" fill="#5B33B1"/>
<path d="M276.699 51.57L285.068 53.19C285.338 53.244 285.635 53.298 285.932 53.298C288.091 53.298 289.954 51.732 290.359 49.626C290.575 48.438 290.359 47.223 289.657 46.224C288.982 45.225 287.956 44.55 286.769 44.307L278.4 42.687C278.13 42.633 277.833 42.579 277.536 42.579C275.377 42.579 273.514 44.145 273.109 46.251C272.893 47.439 273.109 48.654 273.811 49.653C274.486 50.652 275.512 51.327 276.699 51.57Z" fill="#5B33B1"/>
<path d="M286.283 54.297L277.428 54.243C274.945 54.243 272.92 56.268 272.92 58.752C272.92 59.967 273.379 61.101 274.243 61.938C275.08 62.802 276.214 63.261 277.455 63.261L286.31 63.315C288.793 63.315 290.818 61.29 290.818 58.806C290.818 57.591 290.359 56.457 289.495 55.62C288.658 54.756 287.525 54.297 286.283 54.297Z" fill="#5B33B1"/>
<path d="M302.912 89.073C301.913 89.073 300.968 89.397 300.131 90.018L293.868 94.878C292.924 95.607 292.303 96.687 292.168 97.875C292.006 99.09 292.33 100.251 293.086 101.223C293.949 102.357 295.245 103.005 296.649 103.005C297.648 103.005 298.62 102.681 299.429 102.06L305.692 97.2C306.637 96.471 307.258 95.391 307.393 94.203C307.555 92.988 307.231 91.827 306.475 90.855C305.611 89.721 304.315 89.073 302.912 89.073Z" fill="#5B33B1"/>
<path d="M302.912 75.114C302.183 75.114 301.481 75.303 300.833 75.6L294.57 78.84C293.49 79.38 292.708 80.325 292.33 81.486C291.952 82.647 292.06 83.862 292.627 84.942C293.409 86.454 294.948 87.399 296.622 87.399C297.351 87.399 298.053 87.21 298.7 86.913L304.963 83.673C306.043 83.133 306.826 82.188 307.204 81.027C307.582 79.866 307.474 78.651 306.907 77.571C306.124 76.059 304.585 75.114 302.912 75.114Z" fill="#5B33B1"/>
<path d="M296.649 74.844C297.027 74.844 297.405 74.79 297.783 74.682L304.046 73.062C305.233 72.738 306.205 72.009 306.826 70.956C307.447 69.903 307.609 68.715 307.285 67.527C306.772 65.529 304.963 64.125 302.885 64.125C302.507 64.125 302.129 64.179 301.751 64.287L295.488 65.907C294.3 66.231 293.328 66.96 292.708 68.013C292.087 69.066 291.925 70.254 292.249 71.442C292.762 73.44 294.57 74.844 296.649 74.844Z" fill="#5B33B1"/>
<path d="M305.665 21.6L299.402 16.74C298.619 16.119 297.648 15.795 296.622 15.795C295.218 15.795 293.895 16.443 293.058 17.577C291.547 19.548 291.898 22.41 293.868 23.922L300.131 28.782C300.914 29.403 301.886 29.727 302.912 29.727C304.315 29.727 305.638 29.079 306.475 27.945C307.204 27 307.555 25.785 307.393 24.597C307.231 23.382 306.61 22.329 305.692 21.6H305.665Z" fill="#5B33B1"/>
<path d="M294.57 38.583L300.833 41.823C301.481 42.147 302.183 42.309 302.912 42.309C304.612 42.309 306.178 41.364 306.907 39.879C307.474 38.799 307.555 37.584 307.204 36.423C306.826 35.262 306.043 34.317 304.963 33.777L298.7 30.537C298.053 30.213 297.351 30.051 296.622 30.051C294.921 30.051 293.355 30.996 292.627 32.481C292.06 33.561 291.979 34.776 292.33 35.937C292.708 37.098 293.49 38.043 294.57 38.583Z" fill="#5B33B1"/>
<path d="M304.045 44.361L297.783 42.741C297.405 42.633 297.027 42.579 296.649 42.579C294.597 42.579 292.788 43.983 292.276 45.981C291.655 48.384 293.112 50.895 295.542 51.489L301.805 53.109C302.183 53.217 302.561 53.271 302.939 53.271C304.99 53.271 306.799 51.867 307.312 49.869C307.933 47.466 306.475 44.982 304.045 44.361Z" fill="#5B33B1"/>
<path d="M303.263 54.27H296.433C293.949 54.27 291.925 56.268 291.925 58.779C291.925 59.994 292.384 61.128 293.247 61.965C294.084 62.829 295.218 63.288 296.46 63.288H303.29C305.773 63.288 307.798 61.29 307.798 58.779C307.798 57.564 307.339 56.43 306.475 55.593C305.638 54.729 304.504 54.27 303.263 54.27Z" fill="#5B33B1"/>
<path d="M310.956 38.151L315.141 41.391C315.923 42.012 316.895 42.336 317.921 42.336C319.325 42.336 320.648 41.688 321.484 40.554C322.996 38.583 322.645 35.721 320.675 34.209L316.49 30.969C315.707 30.348 314.736 30.024 313.71 30.024C312.306 30.024 310.983 30.672 310.146 31.806C309.391 32.751 309.067 33.966 309.229 35.154C309.391 36.369 309.984 37.422 310.929 38.151H310.956Z" fill="#5B33B1"/>
<path d="M319.514 44.523L315.329 42.903C314.816 42.687 314.25 42.579 313.683 42.579C311.82 42.579 310.146 43.74 309.444 45.468C308.554 47.79 309.714 50.436 312.036 51.327L316.22 52.947C316.733 53.163 317.3 53.271 317.867 53.271C319.73 53.271 321.403 52.11 322.105 50.382C322.996 48.06 321.835 45.414 319.514 44.523Z" fill="#5B33B1"/>
<path d="M318.299 54.27H313.467C310.983 54.27 308.959 56.268 308.959 58.779C308.959 59.994 309.418 61.128 310.281 61.965C311.118 62.829 312.252 63.288 313.494 63.288H318.326C320.809 63.288 322.834 61.29 322.834 58.779C322.834 56.295 320.809 54.27 318.326 54.243L318.299 54.27Z" fill="#5B33B1"/>
<path d="M332.66 89.424C332.093 89.181 331.473 89.046 330.879 89.046C329.07 89.046 327.45 90.126 326.721 91.773L324.616 96.66C324.157 97.767 324.13 99.009 324.562 100.116C324.994 101.25 325.858 102.114 326.964 102.6C327.531 102.843 328.125 102.978 328.746 102.978C330.555 102.978 332.174 101.898 332.903 100.251L335.009 95.364C335.468 94.257 335.495 93.015 335.063 91.908C334.631 90.774 333.767 89.91 332.66 89.424Z" fill="#5B33B1"/>
<path d="M324.373 83.862C324.643 85.05 325.318 86.049 326.343 86.697C327.072 87.183 327.936 87.426 328.773 87.426C330.312 87.426 331.715 86.643 332.579 85.347L334.685 82.107C336.035 80.001 335.441 77.193 333.335 75.816C332.606 75.33 331.742 75.087 330.906 75.087C329.367 75.087 327.963 75.87 327.099 77.193L324.994 80.433C324.346 81.432 324.13 82.674 324.373 83.835V83.889V83.862Z" fill="#5B33B1"/>
<path d="M328.8 74.79C329.799 74.79 330.771 74.466 331.58 73.845L333.686 72.225C334.631 71.496 335.252 70.416 335.387 69.228C335.549 68.013 335.198 66.852 334.469 65.88C333.605 64.773 332.309 64.125 330.906 64.125C329.907 64.125 328.935 64.449 328.125 65.07L326.019 66.69C324.049 68.229 323.698 71.064 325.237 73.035C326.1 74.142 327.396 74.79 328.8 74.79Z" fill="#5B33B1"/>
<path d="M326.019 50.733L328.125 52.353C328.908 52.974 329.88 53.298 330.906 53.298C332.309 53.298 333.632 52.65 334.469 51.543C335.981 49.572 335.657 46.71 333.686 45.198L331.58 43.578C330.798 42.957 329.826 42.633 328.8 42.633C327.396 42.633 326.074 43.281 325.237 44.388C323.725 46.359 324.049 49.221 326.019 50.733Z" fill="#5B33B1"/>
<path d="M331.284 54.27H328.449C325.966 54.27 323.941 56.268 323.941 58.779C323.941 59.994 324.4 61.128 325.264 61.965C326.101 62.829 327.234 63.288 328.476 63.288H331.311C333.794 63.288 335.819 61.29 335.819 58.779C335.819 57.564 335.36 56.43 334.496 55.593C333.659 54.729 332.525 54.27 331.284 54.27Z" fill="#5B33B1"/>
<path d="M341.866 89.019C339.382 89.019 337.357 91.044 337.357 93.528V98.415C337.357 100.926 339.382 102.924 341.866 102.924C344.349 102.924 346.374 100.899 346.374 98.415V93.528C346.374 91.044 344.349 89.019 341.866 89.019Z" fill="#5B33B1"/>
<path d="M341.866 75.114C339.382 75.114 337.357 77.139 337.357 79.623V82.863C337.357 85.374 339.382 87.372 341.866 87.372C344.349 87.372 346.374 85.347 346.374 82.863V79.623C346.374 77.139 344.349 75.114 341.866 75.114Z" fill="#5B33B1"/>
<path d="M341.866 64.152C339.382 64.152 337.357 66.177 337.357 68.661V70.308C337.357 72.792 339.382 74.817 341.866 74.817C344.349 74.817 346.374 72.792 346.374 70.308V68.661C346.374 66.15 344.349 64.152 341.866 64.152Z" fill="#5B33B1"/>
<path d="M356.875 91.746C356.146 90.126 354.526 89.046 352.772 89.046C352.124 89.046 351.53 89.181 350.963 89.424C349.883 89.91 349.019 90.801 348.587 91.935C348.155 93.096 348.182 94.284 348.695 95.391L350.855 100.278C351.584 101.898 353.204 102.978 354.958 102.978C355.606 102.978 356.2 102.843 356.767 102.573C357.847 102.087 358.711 101.196 359.142 100.062C359.574 98.928 359.547 97.713 359.034 96.606L356.875 91.719V91.746Z" fill="#5B33B1"/>
<path d="M348.992 82.134L351.152 85.374C351.989 86.643 353.393 87.372 354.931 87.372C355.822 87.372 356.686 87.102 357.415 86.616C359.493 85.239 360.06 82.431 358.657 80.325L356.497 77.085C355.66 75.816 354.256 75.087 352.718 75.087C351.827 75.087 350.963 75.357 350.234 75.843C349.235 76.518 348.533 77.544 348.317 78.732C348.074 79.92 348.317 81.135 348.992 82.134Z" fill="#5B33B1"/>
<path d="M350.045 72.279L352.205 73.899C353.015 74.493 353.932 74.79 354.931 74.79C356.335 74.79 357.712 74.115 358.522 72.981C359.25 72.009 359.547 70.821 359.385 69.633C359.223 68.418 358.576 67.392 357.631 66.636L355.471 65.016C354.688 64.422 353.743 64.125 352.745 64.125C351.341 64.125 349.964 64.8 349.154 65.934C348.425 66.906 348.128 68.094 348.29 69.282C348.452 70.497 349.073 71.523 350.045 72.279Z" fill="#5B33B1"/>
<path d="M352.745 53.298C353.716 53.298 354.661 52.974 355.471 52.407L357.631 50.787C358.603 50.058 359.223 49.005 359.385 47.79C359.574 46.575 359.223 45.414 358.522 44.442C357.685 43.281 356.308 42.633 354.931 42.633C353.959 42.633 353.015 42.957 352.205 43.524L350.045 45.144C349.1 45.873 348.452 46.926 348.29 48.141C348.101 49.356 348.425 50.517 349.154 51.489C349.991 52.65 351.368 53.298 352.745 53.298Z" fill="#5B33B1"/>
<path d="M355.282 54.27H352.448C349.964 54.27 347.939 56.295 347.939 58.779C347.939 59.994 348.398 61.128 349.262 61.965C350.126 62.829 351.233 63.288 352.475 63.288H355.309C357.793 63.288 359.817 61.263 359.817 58.779C359.817 56.295 357.793 54.27 355.309 54.27H355.282Z" fill="#5B33B1"/>
<path d="M369.994 30.051C369.023 30.051 368.078 30.375 367.295 30.942L362.976 34.182C361.005 35.667 360.6 38.529 362.058 40.527C362.895 41.688 364.272 42.336 365.675 42.336C366.647 42.336 367.592 42.012 368.375 41.445L372.694 38.205C374.665 36.72 375.07 33.858 373.612 31.86C372.775 30.699 371.398 30.051 369.994 30.051Z" fill="#5B33B1"/>
<path d="M365.675 53.271C366.215 53.271 366.755 53.163 367.268 52.974L371.587 51.354C372.721 50.922 373.612 50.085 374.125 49.005C374.638 47.898 374.665 46.683 374.233 45.549C373.585 43.767 371.857 42.606 369.994 42.606C369.455 42.606 368.915 42.714 368.402 42.903L364.083 44.523C361.761 45.387 360.546 48.033 361.41 50.355C362.058 52.137 363.786 53.298 365.648 53.298L365.675 53.271Z" fill="#5B33B1"/>
<path d="M370.345 54.297H365.486C363.003 54.297 360.978 56.322 360.978 58.806C360.978 60.021 361.437 61.155 362.301 61.992C363.138 62.856 364.272 63.315 365.513 63.315H370.372C372.856 63.315 374.881 61.29 374.881 58.806C374.881 56.322 372.856 54.297 370.372 54.27V54.324L370.345 54.297Z" fill="#5B33B1"/>
<path d="M389.782 94.851L383.303 89.991C382.52 89.397 381.602 89.1 380.604 89.1C379.2 89.1 377.823 89.775 376.986 90.936C375.501 92.934 375.906 95.796 377.904 97.281L384.383 102.141C385.166 102.735 386.084 103.032 387.082 103.032C388.486 103.032 389.863 102.357 390.7 101.196C392.184 99.198 391.807 96.336 389.782 94.851Z" fill="#5B33B1"/>
<path d="M389.107 78.84L382.628 75.6C382.007 75.276 381.305 75.114 380.631 75.114C378.903 75.114 377.364 76.059 376.581 77.625C375.474 79.866 376.365 82.593 378.606 83.7L385.085 86.94C385.706 87.264 386.407 87.426 387.082 87.426C388.81 87.426 390.349 86.481 391.132 84.915C392.238 82.674 391.348 79.947 389.107 78.84Z" fill="#5B33B1"/>
<path d="M379.497 73.062L385.975 74.682C386.326 74.79 386.704 74.844 387.055 74.844C389.161 74.844 390.943 73.413 391.455 71.415C392.076 69.012 390.592 66.528 388.162 65.934L381.683 64.314C381.332 64.206 380.954 64.152 380.576 64.152C378.471 64.152 376.689 65.583 376.176 67.581C375.879 68.742 376.068 69.957 376.689 71.01C377.31 72.063 378.282 72.792 379.47 73.062H379.497Z" fill="#5B33B1"/>
<path d="M387.082 15.822C386.11 15.822 385.166 16.146 384.383 16.713L377.904 21.573C375.933 23.058 375.501 25.92 376.986 27.918C377.823 29.079 379.2 29.754 380.604 29.754C381.575 29.754 382.52 29.43 383.303 28.863L389.782 24.003C391.752 22.518 392.184 19.656 390.7 17.658C389.863 16.497 388.486 15.822 387.082 15.822Z" fill="#5B33B1"/>
<path d="M380.604 42.363C381.305 42.363 381.98 42.201 382.601 41.877L389.08 38.637C391.321 37.53 392.238 34.803 391.105 32.562C390.322 30.996 388.783 30.051 387.055 30.051C386.354 30.051 385.679 30.213 385.058 30.537L378.579 33.777C377.499 34.317 376.716 35.262 376.311 36.396C375.933 37.557 375.987 38.772 376.554 39.852C377.337 41.418 378.876 42.363 380.604 42.363Z" fill="#5B33B1"/>
<path d="M387.109 42.633C386.731 42.633 386.38 42.687 386.03 42.795L379.551 44.415C378.363 44.712 377.391 45.414 376.77 46.467C376.149 47.52 375.96 48.708 376.257 49.896C376.743 51.921 378.579 53.325 380.657 53.325C381.008 53.325 381.413 53.271 381.737 53.19L388.216 51.57C390.646 50.976 392.103 48.519 391.51 46.089C390.997 44.064 389.188 42.66 387.109 42.66V42.606V42.633Z" fill="#5B33B1"/>
<path d="M387.379 54.27H380.495C378.012 54.27 375.987 56.268 375.987 58.779C375.987 59.994 376.446 61.128 377.31 61.965C378.147 62.829 379.281 63.288 380.522 63.288H387.406C389.89 63.288 391.914 61.29 391.914 58.779C391.914 56.268 389.89 54.27 387.406 54.27H387.379Z" fill="#5B33B1"/>
<path d="M408.408 94.527L399.77 89.667C399.095 89.289 398.339 89.1 397.556 89.1C395.91 89.1 394.398 89.991 393.615 91.422C392.4 93.609 393.21 96.363 395.37 97.578L404.008 102.438C404.683 102.816 405.439 103.005 406.222 103.005C407.868 103.005 409.38 102.114 410.163 100.683C411.378 98.496 410.568 95.742 408.408 94.554V94.527Z" fill="#5B33B1"/>
<path d="M285.905 104.841C285.122 104.841 284.312 105.057 283.637 105.462L275.269 110.322C273.109 111.591 272.38 114.345 273.622 116.505C274.432 117.882 275.944 118.746 277.536 118.746C278.319 118.746 279.129 118.53 279.804 118.125L288.172 113.265C290.332 111.996 291.061 109.242 289.819 107.082C289.009 105.705 287.498 104.841 285.905 104.841Z" fill="#5B33B1"/>
<path d="M389.782 111.807L383.303 106.947C382.52 106.353 381.602 106.056 380.604 106.056C379.2 106.056 377.823 106.731 376.986 107.892C375.501 109.89 375.906 112.752 377.904 114.237L384.383 119.097C385.166 119.691 386.084 119.988 387.082 119.988C388.486 119.988 389.863 119.313 390.7 118.152C392.184 116.154 391.807 113.292 389.782 111.807Z" fill="#5B33B1"/>
<path d="M408.408 110.268L399.77 105.408C399.095 105.03 398.339 104.841 397.556 104.841C395.91 104.841 394.398 105.732 393.615 107.163C392.4 109.35 393.21 112.104 395.37 113.319L404.008 118.179C404.683 118.557 405.439 118.746 406.222 118.746C407.868 118.746 409.38 117.855 410.163 116.424C411.378 114.237 410.568 111.483 408.408 110.268Z" fill="#5B33B1"/>
<path d="M408.516 126.684L400.202 121.311C399.554 120.879 398.798 120.636 398.042 120.609C396.396 120.501 394.83 121.311 393.939 122.688C392.589 124.794 393.183 127.602 395.289 128.952L403.603 134.325C404.251 134.757 405.007 135 405.763 135.027C407.41 135.135 408.975 134.325 409.866 132.975C411.216 130.869 410.622 128.061 408.516 126.684Z" fill="#5B33B1"/>
<path d="M407.787 78.624L399.149 75.384C398.663 75.168 398.123 75.114 397.556 75.114C395.694 75.114 393.993 76.302 393.318 78.057C392.454 80.379 393.642 82.998 395.991 83.889L404.629 87.129C405.142 87.345 405.655 87.399 406.222 87.399C408.084 87.399 409.785 86.211 410.46 84.456C410.865 83.295 410.811 82.107 410.325 81C409.812 79.893 408.921 79.056 407.787 78.651V78.624Z" fill="#5B33B1"/>
<path d="M407.032 65.826L398.393 64.206C398.123 64.152 397.826 64.098 397.556 64.098C395.397 64.098 393.507 65.664 393.102 67.797C392.886 68.985 393.156 70.2 393.831 71.199C394.506 72.198 395.532 72.873 396.72 73.089L405.358 74.709C405.628 74.763 405.925 74.817 406.195 74.817C408.354 74.817 410.244 73.251 410.649 71.118C410.865 69.93 410.595 68.715 409.92 67.716C409.245 66.717 408.219 66.042 407.032 65.826Z" fill="#5B33B1"/>
<path d="M397.583 15.471C398.555 15.471 399.5 15.147 400.283 14.58L408.921 8.127C409.893 7.398 410.514 6.345 410.676 5.157C410.865 3.942 410.541 2.781 409.839 1.809C409.002 0.648 407.626 -0.0270004 406.222 -0.0270004C405.25 -0.0270004 404.305 0.297 403.522 0.864L394.884 7.317C393.912 8.046 393.291 9.099 393.129 10.287C392.94 11.502 393.264 12.663 393.966 13.635C394.803 14.796 396.18 15.471 397.583 15.471Z" fill="#5B33B1"/>
<path d="M397.583 29.754C398.366 29.754 399.095 29.538 399.797 29.187L408.435 24.327C409.488 23.733 410.244 22.761 410.595 21.6C410.919 20.439 410.811 19.224 410.19 18.144C409.38 16.713 407.869 15.822 406.249 15.822C405.466 15.822 404.737 16.038 404.035 16.389L395.397 21.249C393.237 22.464 392.454 25.218 393.642 27.405C394.425 28.836 395.964 29.727 397.583 29.727V29.781V29.754Z" fill="#5B33B1"/>
<path d="M406.222 30.051C405.682 30.051 405.142 30.159 404.629 30.321L395.991 33.561C393.669 34.425 392.454 37.044 393.318 39.393C393.966 41.175 395.694 42.336 397.556 42.336C398.096 42.336 398.636 42.228 399.149 42.066L407.788 38.826C408.921 38.394 409.812 37.557 410.325 36.477C410.811 35.37 410.865 34.155 410.46 33.021C409.812 31.239 408.085 30.078 406.222 30.078V30.051Z" fill="#5B33B1"/>
<path d="M397.583 53.271C397.853 53.271 398.15 53.217 398.42 53.163L407.059 51.543C408.247 51.327 409.272 50.652 409.947 49.653C410.622 48.654 410.892 47.439 410.676 46.251C410.271 44.091 408.408 42.552 406.222 42.552C405.952 42.552 405.655 42.606 405.385 42.66L396.747 44.28C394.317 44.739 392.697 47.115 393.156 49.572C393.561 51.732 395.424 53.271 397.61 53.271H397.583Z" fill="#5B33B1"/>
<path d="M406.492 54.297H397.583C395.1 54.297 393.075 56.295 393.075 58.806C393.075 60.021 393.534 61.155 394.398 61.992C395.235 62.856 396.369 63.315 397.61 63.315H406.519C409.002 63.315 411.027 61.317 411.027 58.806C411.027 56.295 409.002 54.297 406.519 54.27V54.324L406.492 54.297Z" fill="#5B33B1"/>
<path d="M274.783 8.127L283.151 14.58C283.934 15.201 284.906 15.525 285.905 15.525C287.309 15.525 288.631 14.877 289.495 13.743C290.224 12.798 290.575 11.61 290.413 10.395C290.251 9.18 289.63 8.127 288.712 7.398L280.344 0.945C279.561 0.324 278.589 0 277.59 0C276.187 0 274.864 0.648 274 1.782C273.271 2.727 272.92 3.915 273.109 5.13C273.271 6.345 273.892 7.398 274.81 8.127H274.783Z" fill="#5B33B1"/>
<path d="M293.841 111.807L300.32 106.947C301.103 106.353 302.021 106.056 303.02 106.056C304.423 106.056 305.8 106.731 306.637 107.892C308.122 109.89 307.717 112.752 305.719 114.237L299.24 119.097C298.457 119.691 297.54 119.988 296.541 119.988C295.137 119.988 293.76 119.313 292.924 118.152C291.439 116.154 291.817 113.292 293.841 111.807Z" fill="#5B33B1"/>
<path d="M275.107 126.684L283.421 121.311C284.069 120.879 284.825 120.636 285.581 120.609C287.228 120.501 288.793 121.311 289.684 122.688C291.034 124.794 290.44 127.602 288.334 128.952L280.02 134.325C279.372 134.757 278.616 135 277.86 135.027C276.214 135.135 274.648 134.325 273.757 132.975C272.407 130.869 273.001 128.061 275.107 126.684Z" fill="#5B33B1"/>
</g>
<defs>
<clipPath id="clip0_157_623">
<rect width="411" height="135" fill="white"/>
</clipPath>
</defs>
</svg>
