<svg xmlns="http://www.w3.org/2000/svg" width="158" height="70" viewBox="0 0 158 70">
    <g fill="none" fill-rule="evenodd">
        <g fill-rule="nonzero">
            <g>
                <g>
                    <path fill="#09436B" d="M35.39 53.28c-11.79.001-22.804-5.885-29.354-15.69C-.514 27.787-1.735 15.36 2.78 4.468L8.383 6.8c-5.327 12.88-.818 27.73 10.77 35.475 11.59 7.744 27.035 6.228 36.897-3.622l4.283 4.287c-6.62 6.617-15.597 10.333-24.956 10.333" transform="translate(-78 -11) translate(78 11)"/>
                    <path fill="#0F878A" d="M35.46 43.303h-.167c-10.222-.048-19.413-6.235-23.305-15.687C8.096 18.164 10.266 7.299 17.49.066l4.277 4.307c-5.492 5.5-7.14 13.76-4.178 20.946 2.962 7.185 9.953 11.886 17.724 11.918h.13C46.047 37.204 54.63 28.604 54.64 18l6.07-.02c0 13.959-11.291 25.287-25.25 25.333" transform="translate(-78 -11) translate(78 11)"/>
                    <path fill="#EC6153" d="M35.39 33.333c-8.468 0-15.333-6.865-15.333-15.333h6.066c0 3.752 2.26 7.135 5.727 8.57 3.466 1.436 7.456.643 10.11-2.01 2.653-2.654 3.446-6.644 2.01-10.11-1.435-3.466-4.818-5.727-8.57-5.727V2.657c8.475 0 15.345 6.87 15.345 15.345 0 8.474-6.87 15.345-15.345 15.345" transform="translate(-78 -11) translate(78 11)"/>
                    <path fill="#F2BB0C" d="M40.333 17.98c0-2.736-2.217-4.953-4.953-4.953s-4.953 2.217-4.953 4.953 2.217 4.953 4.953 4.953c1.314.001 2.574-.52 3.504-1.45.929-.929 1.45-2.189 1.45-3.503" transform="translate(-78 -11) translate(78 11)"/>
                    <path fill="#09436B" d="M78.86 19.417c0 7.666 18 1.246 18 14.026 0 6.59-4.543 9.527-12.38 9.527-5.787 0-9.217-1.513-11.267-2.713l.714-5.524c3.188 1.867 6.815 2.85 10.51 2.85 4.273 0 6.366-1.246 6.366-3.786 0-7.3-17.946-1.424-17.946-14.07 0-5.967 3.696-9.35 11.49-9.35 7.703 0 11.266 2.893 11.71 7.926l-6 .977c-.4-2.893-2.407-3.873-5.7-3.873-3.52 0-5.477 1.38-5.477 4M132.783 37.45l-.09 5.077c-1.296.189-2.606.278-3.916.266-3.334 0-5.257-.89-5.257-5.12V29.88h-14.827v12.557h-6.1V10.82h6.1v13.493h14.827V10.82h6.103v26.273c1.03.273 2.095.393 3.16.357M143.783 16.077L143.783 24.357 156.383 24.357 156.383 29.437 143.783 29.437 143.783 42.437 137.683 42.437 137.683 10.82 157.72 10.82 157.363 16.077zM6.087 59.333v.767c0 .08-.04.117-.12.117h-2.3c-.03 0-.047 0-.047.05v7.2c.004.033-.007.066-.03.09-.024.023-.057.034-.09.03h-.91c-.032.003-.065-.009-.087-.032-.023-.023-.034-.056-.03-.088V60.27c.003-.014-.002-.028-.012-.038-.01-.01-.024-.014-.038-.012H.237c-.08 0-.12-.037-.12-.117v-.77c-.005-.033.006-.066.03-.09.023-.023.057-.034.09-.03h5.73c.033-.004.066.007.09.03.023.024.034.057.03.09zM11.633 62c.397.41.606.967.577 1.537v3.93c.004.033-.007.066-.03.09-.024.023-.057.034-.09.03h-.91c-.033.004-.066-.007-.09-.03-.023-.024-.034-.057-.03-.09V63.75c.019-.354-.1-.702-.333-.97-.24-.25-.575-.386-.92-.37-.345-.012-.68.122-.92.37-.243.258-.372.603-.36.957v3.73c.004.033-.007.066-.03.09-.024.023-.057.034-.09.03H7.5c-.033.004-.066-.007-.09-.03-.023-.024-.034-.057-.03-.09v-8.134c-.004-.033.007-.066.03-.09.024-.023.057-.034.09-.03h.907c.033-.004.066.007.09.03.023.024.034.057.03.09v2.714c-.001.014.005.028.016.036h.03c.37-.455.936-.703 1.52-.666.572-.023 1.128.187 1.54.583zM18.737 64.883c.004.033-.007.067-.03.09-.024.024-.057.035-.09.03h-3.814c-.033 0-.046.017-.046.05-.008.21.016.418.07.62.079.308.269.575.533.75.3.186.648.278 1 .267.553.02 1.073-.26 1.363-.73.04-.08.09-.09.154-.033l.683.453c.05.034.066.1.037.153-.233.367-.563.661-.954.85-.433.214-.91.321-1.393.314-.517.016-1.027-.117-1.47-.384-.404-.262-.717-.642-.897-1.09-.204-.546-.3-1.127-.286-1.71-.016-.448.029-.897.133-1.333.125-.522.43-.983.86-1.303.456-.327 1.006-.496 1.567-.48.658-.052 1.31.167 1.803.606.439.492.696 1.119.73 1.777.037.367.053.735.047 1.103zm-3.404-2.216c-.223.171-.383.413-.453.686-.064.217-.1.441-.107.667 0 .033 0 .05.047.05h2.737c.014.002.028-.002.038-.012.01-.01.014-.024.012-.038-.008-.196-.032-.391-.074-.583-.13-.444-.465-.798-.902-.95-.436-.153-.92-.086-1.298.18zM23.703 67.397c-.417-.167-.777-.45-1.04-.814-.247-.363-.374-.794-.363-1.233v-.333c-.004-.033.007-.067.03-.09.024-.024.057-.035.09-.03h.87c.033-.005.066.006.09.03.023.023.034.057.03.09v.286c0 .4.197.774.527 1 .426.285.934.423 1.446.394.441.037.88-.08 1.244-.334.275-.22.43-.557.42-.91.005-.229-.072-.452-.217-.63-.175-.201-.388-.367-.627-.486-.391-.198-.793-.375-1.203-.53-.472-.176-.933-.381-1.38-.614-.33-.175-.618-.42-.843-.72-.232-.33-.35-.727-.334-1.13-.029-.626.246-1.227.737-1.616.58-.42 1.286-.625 2-.584.533-.012 1.062.09 1.553.297.417.176.775.466 1.034.837.246.367.374.8.366 1.243v.24c.005.033-.006.066-.03.09-.023.023-.057.034-.09.03h-.896c-.033.004-.067-.007-.09-.03-.024-.024-.035-.057-.03-.09v-.18c.004-.403-.18-.785-.497-1.033-.393-.297-.879-.443-1.37-.414-.405-.024-.808.083-1.147.307-.272.207-.424.535-.406.877-.01.232.062.461.203.646.167.19.373.344.603.45.267.13.667.3 1.227.507.47.178.928.384 1.373.617.343.179.64.431.874.74.234.334.35.736.333 1.143.025.647-.261 1.267-.77 1.667-.617.44-1.366.658-2.123.616-.547.006-1.088-.099-1.594-.306zM33.053 61.667c.343.153.635.402.84.716.196.314.296.677.29 1.047v4.037c.005.033-.006.066-.03.09-.023.023-.057.034-.09.03h-.906c-.033.004-.067-.007-.09-.03-.024-.024-.035-.057-.03-.09v-.43c0-.04-.02-.047-.06-.024-.214.22-.473.39-.76.497-.32.119-.66.177-1 .173-.525.021-1.041-.137-1.464-.45-.404-.33-.622-.836-.583-1.356-.022-.566.226-1.109.667-1.464.527-.383 1.172-.572 1.823-.533h1.333c.013.001.025-.004.034-.013.01-.009.014-.021.013-.034V63.5c.017-.304-.093-.6-.303-.82-.26-.214-.592-.319-.927-.293-.287-.013-.571.056-.82.2-.2.112-.342.305-.39.53-.023.08-.07.116-.143.106l-.967-.13c-.08-.016-.117-.046-.11-.096.07-.477.345-.898.753-1.154.492-.314 1.067-.471 1.65-.45.439-.005.873.088 1.27.274zm-.483 4.716c.292-.184.468-.505.467-.85v-.706c0-.013-.004-.025-.013-.034-.009-.01-.021-.014-.034-.013h-1.123c-.395-.02-.786.077-1.127.277-.267.16-.426.452-.417.763-.016.262.104.514.317.667.245.162.536.242.83.226.393.01.779-.107 1.1-.333v.003zM40 62c.396.41.604.967.573 1.537v3.93c.005.033-.006.066-.03.09-.023.023-.057.034-.09.03h-.906c-.033.004-.067-.007-.09-.03-.024-.024-.035-.057-.03-.09V63.75c.019-.354-.1-.702-.334-.97-.515-.491-1.325-.491-1.84 0-.242.258-.372.603-.36.957v3.73c.005.033-.006.066-.03.09-.023.023-.057.034-.09.03h-.91c-.033.004-.066-.007-.09-.03-.023-.024-.034-.057-.03-.09V61.62c-.004-.033.007-.066.03-.09.024-.023.057-.034.09-.03h.91c.033-.004.067.007.09.03.024.024.035.057.03.09v.43c-.005.012-.005.025 0 .037h.03c.37-.455.936-.704 1.52-.667.577-.028 1.14.182 1.557.58zM42.363 60.333c-.29-.265-.35-.699-.143-1.033.207-.334.622-.474.99-.331.366.142.579.525.506.911-.072.387-.41.667-.803.667-.205.007-.403-.07-.55-.214zm-.05 7.127v-5.84c-.004-.033.007-.066.03-.09.024-.023.057-.034.09-.03h.9c.033-.004.067.007.09.03.024.024.035.057.03.09v5.837c.005.033-.006.066-.03.09-.023.023-.057.034-.09.03h-.9c-.033.004-.066-.007-.09-.03-.023-.024-.034-.057-.03-.09v.003zM48.15 62.447h-1.293c-.013-.003-.027.001-.036.01-.01.01-.013.023-.011.036v3.174c-.049.26.033.528.22.716.186.188.453.273.713.227h.334c.033-.004.066.007.09.03.023.024.034.057.03.09v.74c.004.033-.007.066-.03.09-.024.023-.057.034-.09.03-.254.017-.437.023-.55.023-.48.033-.959-.083-1.37-.333-.307-.22-.46-.623-.46-1.213v-3.574c.002-.013-.002-.026-.011-.035-.01-.01-.023-.014-.036-.011h-.717c-.033.004-.066-.007-.09-.03-.023-.024-.034-.057-.03-.09v-.707c-.004-.033.007-.066.03-.09.024-.023.057-.034.09-.03h.734c.013.002.026-.002.035-.011.01-.01.014-.023.011-.036v-1.41c-.004-.033.007-.066.03-.09.024-.023.057-.034.09-.03h.86c.033-.004.067.007.09.03.024.024.035.057.03.09v1.41c-.002.013.002.027.011.036.01.01.023.013.036.011h1.293c.033-.004.067.007.09.03.024.024.035.057.03.09v.713c.003.033-.01.065-.034.087-.024.022-.057.032-.089.027zM53.177 61.667c.342.153.632.402.836.716.198.313.3.677.294 1.047v4.037c.004.033-.007.066-.03.09-.024.023-.057.034-.09.03h-.907c-.033.004-.066-.007-.09-.03-.023-.024-.034-.057-.03-.09v-.43c0-.04-.02-.047-.06-.024-.214.22-.473.39-.76.497-.32.118-.659.177-1 .173-.525.02-1.04-.138-1.463-.45-.403-.33-.619-.837-.58-1.356-.027-.563.214-1.106.65-1.464.528-.383 1.172-.571 1.823-.533h1.333c.034 0 .05-.017.05-.047V63.5c.017-.304-.094-.602-.306-.82-.26-.214-.592-.319-.927-.293-.286-.013-.569.057-.817.2-.2.112-.342.305-.39.53-.004.033-.021.064-.048.084-.028.02-.062.028-.095.022l-.97-.13c-.08-.016-.113-.046-.107-.096.068-.478.344-.9.754-1.154.49-.315 1.067-.472 1.65-.45.442-.006.88.087 1.28.274zm-.484 4.716c.292-.184.468-.505.467-.85v-.706c0-.03-.017-.047-.05-.047H52c-.393-.02-.784.077-1.123.277-.268.16-.428.451-.42.763-.012.265.114.517.333.667.245.162.536.242.83.226.384.005.76-.112 1.073-.333v.003zM58.667 62.447h-1.3c-.013-.003-.027.001-.036.01-.01.01-.013.023-.011.036v3.174c-.049.26.033.528.22.716.186.188.453.273.713.227h.334c.033-.004.066.007.09.03.023.024.034.057.03.09v.74c.004.033-.007.066-.03.09-.024.023-.057.034-.09.03-.257.017-.44.023-.55.023-.48.033-.959-.083-1.37-.333-.307-.22-.46-.623-.46-1.213v-3.574c.002-.013-.002-.026-.011-.035-.01-.01-.023-.014-.036-.011h-.73c-.058-.006-.1-.056-.097-.114v-.706c-.004-.033.007-.067.03-.09.024-.024.057-.035.09-.03h.73c.013.002.027-.002.036-.011.01-.01.013-.023.011-.036v-1.41c-.004-.033.007-.066.03-.09.024-.023.057-.034.09-.03h.86c.033-.004.066.007.09.03.023.024.034.057.03.09v1.41c-.002.013.002.026.011.036.01.009.023.013.036.01h1.29c.033-.004.066.007.09.03.023.024.034.058.03.09v.707c.002.032-.01.063-.033.085-.024.022-.056.033-.087.029zM60.333 60.333c-.29-.265-.35-.699-.143-1.033.207-.334.622-.474.99-.331.366.142.579.525.506.911-.072.387-.41.667-.803.667-.205.007-.403-.07-.55-.214zm-.046 7.127v-5.84c-.005-.033.006-.066.03-.09.023-.023.057-.034.09-.03h.906c.033-.004.067.007.09.03.024.024.035.057.03.09v5.837c.005.033-.006.066-.03.09-.023.023-.057.034-.09.03h-.906c-.033.004-.067-.007-.09-.03-.024-.024-.035-.057-.03-.09v.003zM64.183 67.233c-.44-.298-.764-.738-.92-1.246-.151-.472-.224-.965-.216-1.46-.013-.486.056-.97.203-1.434.159-.505.483-.941.92-1.24.463-.307 1.01-.465 1.567-.45.535-.011 1.06.146 1.5.45.428.3.75.73.916 1.227.152.462.224.947.214 1.433.01.5-.063.997-.214 1.474-.155.505-.476.944-.91 1.246-.447.306-.978.463-1.52.45-.547.012-1.085-.145-1.54-.45zm2.377-.81c.249-.191.43-.458.517-.76.094-.368.138-.747.13-1.126.008-.374-.033-.747-.12-1.11-.086-.302-.266-.568-.514-.76-.253-.185-.56-.28-.873-.27-.304-.008-.603.087-.847.27-.249.191-.43.458-.516.76-.097.361-.141.735-.13 1.11-.012.38.03.76.126 1.13.081.303.26.57.51.76.256.18.564.274.877.266.302.006.598-.089.84-.27zM74.143 62c.396.41.604.967.574 1.537v3.93c.004.033-.007.066-.03.09-.024.023-.057.034-.09.03h-.907c-.033.004-.066-.007-.09-.03-.023-.024-.034-.057-.03-.09V63.75c.019-.354-.1-.702-.333-.97-.24-.25-.577-.385-.924-.37-.345-.012-.679.123-.92.37-.24.259-.37.603-.356.957v3.73c.004.033-.007.066-.03.09-.024.023-.057.034-.09.03H70c-.033.004-.066-.007-.09-.03-.023-.024-.034-.057-.03-.09V61.62c-.004-.033.007-.066.03-.09.024-.023.057-.034.09-.03h.91c.033-.004.066.007.09.03.023.024.034.057.03.09v.43c0 .017 0 .03.017.037.016.006.023 0 .03 0 .369-.455.935-.704 1.52-.667.573-.025 1.131.184 1.546.58zM85.3 67.517c0 .046-.033.07-.097.07h-1.03c-.056-.001-.108-.027-.143-.07l-.61-.694c0-.026-.04-.03-.07 0-.346.287-.738.512-1.16.667-.407.141-.836.212-1.267.21-.627.027-1.247-.152-1.763-.51-.466-.348-.725-.907-.69-1.487-.016-.504.149-.998.463-1.393.36-.428.786-.797 1.26-1.093.03-.017.037-.037 0-.06-.328-.39-.616-.81-.86-1.257-.141-.27-.215-.571-.216-.877-.014-.711.392-1.364 1.036-1.666.353-.168.74-.251 1.13-.244.586-.024 1.16.167 1.614.537.417.347.65.867.633 1.41.008.463-.146.913-.437 1.273-.344.412-.749.77-1.2 1.06-.033 0-.036.027 0 .06.303.367.8.945 1.494 1.734l.05.06c.004.014.018.024.033.023.012.006.025.006.037 0 .35-.437.61-.777.776-1.017.014-.028.04-.049.07-.056.031-.006.063.002.087.023l.667.38c.033.012.057.04.064.075.008.034-.003.07-.028.095-.293.46-.628.891-1 1.29v.023c.007.03.02.059.037.084.28.335.643.762 1.09 1.28.019.018.03.043.03.07zm-2.633-1.47c.026-.027.026-.05 0-.074l-.407-.49c-.236-.269-.379-.429-.43-.48l-.873-.98c0-.023-.027-.026-.06 0-.35.22-.668.487-.944.794-.212.24-.33.549-.333.87-.011.293.12.574.353.753.277.197.612.294.95.277.64-.027 1.251-.262 1.744-.67zM80.54 60.43c-.193.176-.298.429-.287.69.008.184.063.363.16.52.21.327.44.64.69.937.02.019.05.019.07 0 .327-.204.626-.45.89-.73.195-.208.305-.482.307-.767.009-.257-.102-.503-.3-.667-.216-.175-.489-.265-.767-.253-.28-.01-.552.087-.763.27zM94.123 59.217h.907c.033-.005.066.006.09.03.023.023.034.057.03.09v8.13c.004.033-.007.066-.03.09-.024.023-.057.034-.09.03h-.907c-.033.004-.066-.007-.09-.03-.023-.024-.034-.057-.03-.09v-3.55c0-.034-.016-.047-.05-.047h-3.406c-.034 0-.047 0-.047.047v3.55c.004.033-.007.066-.03.09-.024.023-.057.034-.09.03h-.91c-.033.004-.066-.007-.09-.03-.023-.024-.034-.057-.03-.09v-8.134c-.004-.033.007-.066.03-.09.024-.023.057-.034.09-.03h.91c.033-.004.066.007.09.03.023.024.034.057.03.09v3.49c0 .034 0 .05.047.05h3.406c.014.003.028-.002.038-.012.01-.01.015-.024.012-.038v-3.49c-.003-.032.009-.064.032-.087.023-.023.056-.034.088-.03zM96.667 69.847v-.707c-.004-.032.008-.065.031-.087.024-.023.056-.034.089-.03h.023c.256.001.51-.04.753-.12.192-.079.351-.22.454-.4.148-.277.26-.573.333-.88v-.073l-2-5.917v-.05c0-.053.033-.083.107-.083h.97c.064-.005.123.035.143.097l1.35 4.506c.006.015.02.025.037.024.015 0 .028-.01.033-.024l1.333-4.506c.02-.062.08-.102.144-.097h.946c.087 0 .117.047.094.133L99.333 68c-.127.43-.311.841-.546 1.223-.174.261-.426.46-.72.57-.402.127-.823.183-1.244.167h-.083c-.057.007-.073-.033-.073-.113zM106.16 61.5h.91c.033-.004.066.007.09.03.023.024.034.057.03.09v5.667c0 .964-.273 1.653-.82 2.066-.642.445-1.413.664-2.193.624-.127 0-.334 0-.597-.024-.034 0-.067-.014-.09-.04-.023-.025-.034-.059-.03-.093l.033-.823c0-.032.014-.062.037-.084.025-.025.063-.034.097-.023h.49c.518.044 1.036-.088 1.47-.377.336-.333.504-.801.456-1.273v-.217c0-.014-.007-.027-.02-.033h-.04c-.375.409-.916.625-1.47.587-.498.006-.988-.136-1.406-.407-.425-.279-.733-.703-.867-1.193-.118-.478-.171-.969-.157-1.46-.019-.517.042-1.033.18-1.53.139-.462.422-.867.807-1.157.396-.294.878-.447 1.37-.437.583-.032 1.152.19 1.56.607.017.017.03.02.04.017.013-.004.022-.017.02-.03v-.37c-.017-.077.02-.117.1-.117zm-.137 3.733c.014-.144.02-.384.02-.72 0-.335-.006-.572-.02-.71-.01-.135-.032-.269-.066-.4-.056-.283-.208-.539-.43-.723-.493-.374-1.175-.374-1.667 0-.226.19-.392.44-.477.723-.106.36-.15.735-.133 1.11-.021.38.02.76.12 1.127.075.286.241.54.473.723.244.19.545.288.854.28.31.015.614-.085.856-.28.217-.188.366-.442.424-.723.022-.135.038-.27.046-.407zM108.937 60.333c-.29-.265-.351-.699-.144-1.033.207-.334.623-.474.99-.331.366.142.58.525.507.911-.073.387-.41.667-.803.667-.205.007-.404-.07-.55-.214zm-.05 7.127v-5.84c-.005-.033.006-.066.03-.09.023-.023.057-.034.09-.03h.91c.033-.004.066.007.09.03.023.024.034.057.03.09v5.837c.004.033-.007.066-.03.09-.024.023-.057.034-.09.03H109c-.032.002-.063-.01-.085-.033-.022-.024-.032-.056-.028-.087v.003zM116.803 64.883c.005.033-.006.067-.03.09-.023.024-.057.035-.09.03h-3.813c-.033 0-.047.017-.047.05-.007.21.016.418.07.62.08.308.27.575.534.75.3.186.647.278 1 .267.552.02 1.073-.26 1.363-.73.04-.08.09-.09.153-.033l.667.453c.05.034.066.1.037.153-.233.367-.563.661-.954.85-.433.214-.91.321-1.393.314-.517.016-1.027-.117-1.47-.384-.404-.262-.717-.642-.897-1.09-.204-.546-.3-1.127-.286-1.71-.016-.448.029-.897.133-1.333.125-.522.43-.983.86-1.303.456-.327 1.006-.496 1.567-.48.658-.052 1.31.167 1.803.606.439.492.696 1.119.73 1.777.043.366.064.735.063 1.103zm-3.42-2.216c-.223.171-.383.413-.453.686-.064.217-.1.441-.107.667 0 .033 0 .05.047.05h2.737c.012.01.03.014.045.008.016-.005.027-.018.03-.035.003-.016-.003-.032-.015-.043-.008-.196-.032-.391-.074-.583-.13-.444-.465-.798-.902-.95-.436-.153-.92-.086-1.298.18l-.01.02zM122.52 62c.395.411.602.967.573 1.537v3.93c.005.033-.006.066-.03.09-.023.023-.057.034-.09.03h-.91c-.033.004-.066-.007-.09-.03-.023-.024-.034-.057-.03-.09V63.75c.02-.355-.099-.703-.333-.97-.239-.25-.574-.386-.92-.37-.345-.012-.68.123-.92.37-.242.258-.372.603-.36.957v3.73c.004.032-.007.065-.03.088-.022.023-.054.035-.087.032h-.91c-.033.004-.066-.007-.09-.03-.023-.024-.034-.057-.03-.09V61.62c-.004-.033.007-.066.03-.09.024-.023.057-.034.09-.03h.91c.033-.003.065.008.088.032.022.023.033.056.029.088v.43c-.002.015.006.03.02.037h.03c.368-.455.933-.704 1.517-.667.571-.023 1.128.186 1.543.58zM129.62 64.883c.004.033-.007.065-.03.089-.022.023-.054.035-.087.031h-3.816c-.03 0-.047.017-.047.05-.008.21.016.418.07.62.08.307.27.574.533.75.3.186.648.278 1 .267.553.02 1.074-.26 1.364-.73.04-.08.09-.09.153-.033l.683.453c.052.033.068.1.037.153-.23.367-.56.662-.95.85-.433.213-.91.32-1.393.314-.517.017-1.028-.116-1.47-.384-.406-.26-.72-.642-.897-1.09-.207-.545-.305-1.126-.29-1.71-.014-.448.03-.896.133-1.333.125-.522.43-.983.86-1.303.456-.327 1.006-.495 1.567-.48.66-.051 1.312.168 1.807.606.436.494.693 1.12.73 1.777.036.367.05.735.043 1.103zm-3.42-2.216c-.224.171-.383.413-.453.686-.063.217-.099.441-.107.667 0 .033.017.05.047.05h2.74c.03 0 .046-.017.046-.05-.007-.196-.032-.391-.073-.583-.067-.295-.233-.559-.47-.747-.251-.194-.563-.295-.88-.283-.305-.013-.605.078-.85.26zM139.03 60.21h-4.233c-.013-.001-.025.004-.034.013-.01.009-.014.021-.013.034v2.57c0 .033 0 .05.047.05h2.906c.033-.005.067.006.09.03.024.023.035.057.03.09v.753c.005.033-.006.066-.03.09-.023.023-.057.034-.09.03h-2.906c-.013-.002-.027.002-.036.011-.01.01-.013.023-.011.036v3.55c.004.033-.007.066-.03.09-.024.023-.057.034-.09.03h-.91c-.032.003-.065-.009-.087-.032-.023-.023-.034-.056-.03-.088v-8.134c-.004-.032.007-.065.03-.088.022-.023.055-.035.087-.032h5.31c.033-.004.066.007.09.03.023.024.034.057.03.09v.754c.006.033-.005.067-.029.092-.023.024-.057.036-.091.031zM143.693 61.5h.897c.033-.004.066.007.09.03.023.024.034.057.03.09v5.847c.004.033-.007.066-.03.09-.024.023-.057.034-.09.03h-.897c-.033.004-.066-.007-.09-.03-.023-.024-.034-.057-.03-.09v-.444c.002-.012-.005-.024-.016-.03 0 0-.027 0-.044.02-.346.456-.899.707-1.47.667-.372.005-.74-.073-1.08-.227-.69-.3-1.126-.994-1.096-1.746V61.62c-.005-.033.006-.066.03-.09.023-.023.057-.034.09-.03h.896c.033-.004.067.007.09.03.024.024.035.057.03.09v3.713c-.019.358.1.709.334.98.242.249.58.379.926.357.355.017.7-.114.954-.363.246-.263.376-.614.36-.974V61.62c-.005-.032.006-.065.029-.088.023-.024.055-.035.087-.032zM150.667 62c.394.411.602.967.573 1.537v3.93c.004.033-.007.066-.03.09-.024.023-.057.034-.09.03h-.91c-.033.004-.066-.007-.09-.03-.023-.024-.034-.057-.03-.09V63.75c.02-.355-.1-.703-.333-.97-.24-.25-.575-.386-.92-.37-.345-.012-.68.123-.92.37-.243.258-.372.603-.36.957v3.73c0 .08-.037.12-.117.12h-.91c-.033.004-.066-.007-.09-.03-.023-.024-.034-.057-.03-.09V61.62c-.004-.033.007-.066.03-.09.024-.023.057-.034.09-.03h.91c.08 0 .117.04.117.12v.43c-.002.015.006.03.02.037h.03c.368-.456.935-.704 1.52-.667.57-.023 1.126.186 1.54.58zM156.69 59.217h.91c.033-.005.066.006.09.03.023.023.034.057.03.09v8.13c.004.033-.007.066-.03.09-.024.023-.057.034-.09.03h-.91c-.033.004-.066-.007-.09-.03-.023-.024-.034-.057-.03-.09v-.394c0-.014-.006-.027-.017-.036h-.043c-.35.406-.86.637-1.397.633-.51.02-1.012-.13-1.43-.423-.395-.305-.685-.726-.83-1.204-.164-.493-.242-1.01-.23-1.53-.008-.489.057-.977.194-1.446.14-.486.428-.917.823-1.234.428-.308.946-.464 1.473-.443.266 0 .528.056.77.163.241.105.455.262.627.46.017.017.03.02.043 0 .011-.009.017-.022.017-.036V59.31c.003-.028.018-.054.04-.072.023-.017.052-.025.08-.021zm-.143 5.333c.03-.527-.074-1.053-.3-1.53-.189-.379-.577-.616-1-.61-.435-.022-.845.2-1.064.577-.274.478-.406 1.025-.38 1.576-.02.511.081 1.02.297 1.484.21.43.658.692 1.137.666.447.01.858-.24 1.053-.643.208-.483.296-1.009.257-1.533v.013z" transform="translate(-78 -11) translate(78 11)"/>
                </g>
            </g>
        </g>
    </g>
</svg>
